<svg xmlns="http://www.w3.org/2000/svg" xmlns:xlink="http://www.w3.org/1999/xlink" viewBox="0,0,256,256" width="24px" height="24px"><g fill="#dc2640" fill-rule="nonzero" stroke="none" stroke-width="1" stroke-linecap="butt" stroke-linejoin="miter" stroke-miterlimit="10" stroke-dasharray="" stroke-dashoffset="0" font-family="none" font-weight="none" font-size="none" text-anchor="none" style="mix-blend-mode: normal"><g transform="scale(10.66667,10.66667)"><path d="M12,2c-5.511,0 -10,4.489 -10,10c0,5.511 4.489,10 10,10c5.511,0 10,-4.489 10,-10c0,-5.511 -4.489,-10 -10,-10zM12,4c4.43012,0 8,3.56988 8,8c0,1.85307 -0.63074,3.55056 -1.68164,4.9043l-11.22266,-11.22266c1.35374,-1.0509 3.05123,-1.68164 4.9043,-1.68164zM5.68164,7.0957l11.22266,11.22266c-1.35374,1.0509 -3.05123,1.68164 -4.9043,1.68164c-4.43012,0 -8,-3.56988 -8,-8c0,-1.85307 0.63074,-3.55056 1.68164,-4.9043z"></path></g></g></svg>